<?xml version="1.0" standalone="no"?>
<!DOCTYPE svg PUBLIC "-//W3C//DTD SVG 20010904//EN"
 "http://www.w3.org/TR/2001/REC-SVG-20010904/DTD/svg10.dtd">
<svg version="1.0" xmlns="http://www.w3.org/2000/svg"
 width="1024.000000pt" height="1024.000000pt" viewBox="0 0 1024.000000 1024.000000"
 preserveAspectRatio="xMidYMid meet">

<g transform="translate(0.000000,1024.000000) scale(0.100000,-0.100000)"
fill="#000000" stroke="none">
<path d="M0 5120 l0 -5120 5120 0 5120 0 0 5120 0 5120 -5120 0 -5120 0 0
-5120z m2241 2534 c332 -80 809 -194 1059 -255 1070 -257 1042 -250 1072 -280
l28 -27 0 -1025 0 -1024 -24 -26 c-29 -31 4 -22 -551 -151 -540 -126 -1101
-257 -1709 -400 -248 -58 -465 -106 -483 -106 -43 0 -91 44 -94 85 -1 17 -1
765 -1 1663 l2 1634 29 29 c16 16 38 29 48 29 11 0 291 -66 624 -146z m5399
-164 c241 -82 409 -248 490 -486 33 -94 34 -106 34 -239 1 -160 -11 -213 -75
-335 -75 -144 -176 -244 -331 -325 -239 -126 -562 -93 -780 79 -114 91 -219
242 -265 381 -22 68 -26 98 -27 205 -1 147 14 213 76 340 34 71 58 101 142
185 130 130 210 174 401 219 11 3 76 3 145 2 96 -3 140 -9 190 -26z m2 -1681
c193 -54 348 -180 432 -351 65 -132 79 -197 74 -338 -6 -133 -8 -144 -178
-745 -65 -231 -130 -465 -145 -520 -52 -192 -155 -340 -308 -442 -135 -90
-332 -143 -474 -129 -36 4 -252 45 -481 92 -610 125 -762 154 -807 154 -50 0
-99 -29 -122 -72 -15 -29 -167 -352 -475 -1005 -91 -194 -132 -247 -235 -299
-53 -27 -67 -29 -163 -29 -119 0 -156 14 -234 85 -65 60 -91 120 -91 210 0 68
18 137 207 775 113 385 221 749 238 810 18 60 45 136 62 169 37 73 135 174
203 209 114 57 110 57 722 57 616 0 607 -1 637 58 16 32 62 185 146 487 119
431 151 505 270 625 194 196 463 270 722 199z m959 -1142 c48 -32 79 -83 79
-128 0 -20 -27 -127 -59 -236 -33 -109 -96 -324 -141 -478 -117 -406 -175
-549 -276 -692 -150 -210 -389 -375 -637 -438 -164 -41 -270 -46 -878 -43
l-566 3 -36 28 c-104 79 -100 239 7 302 l43 25 554 0 c305 0 596 5 648 10 332
35 596 249 711 575 37 106 158 505 240 793 62 216 82 256 142 285 49 25 128
22 169 -6z"/>
<path d="M1840 6075 c0 -1266 1 -1355 17 -1355 31 0 2228 522 2241 532 9 8 12
185 12 824 0 447 -4 815 -8 818 -5 3 -209 53 -453 111 -1505 360 -1781 425
-1794 425 -13 0 -15 -176 -15 -1355z m899 576 c136 -81 374 -226 531 -321 157
-95 295 -181 307 -193 32 -28 39 -77 18 -121 -14 -30 -57 -61 -274 -197 -141
-89 -376 -238 -523 -331 -147 -92 -281 -171 -297 -174 -41 -9 -89 13 -106 47
-22 42 -22 1356 0 1399 36 70 66 60 344 -109z"/>
</g>
</svg>
