<?xml version="1.0" standalone="no"?>
<!DOCTYPE svg PUBLIC "-//W3C//DTD SVG 20010904//EN"
 "http://www.w3.org/TR/2001/REC-SVG-20010904/DTD/svg10.dtd">
<svg version="1.0" xmlns="http://www.w3.org/2000/svg"
 width="500.000000pt" height="500.000000pt" viewBox="0 0 500.000000 500.000000"
 preserveAspectRatio="xMidYMid meet">
<metadata>
Created by potrace 1.16, written by Peter Selinger 2001-2019
</metadata>
<g transform="translate(0.000000,500.000000) scale(0.100000,-0.100000)"
fill="#000000" stroke="none">
<path d="M1540 2498 c0 -809 2 -1469 5 -1466 8 8 11 2938 3 2938 -5 0 -8 -662
-8 -1472z"/>
<path d="M2202 3083 l-2 -363 594 -2 c327 -2 592 0 589 5 -2 4 -267 7 -588 7
l-585 0 -3 358 -2 357 -3 -362z"/>
<path d="M2793 2193 l-593 -3 0 -585 0 -585 -325 -3 -325 -2 327 0 328 0 3
583 2 582 590 0 c387 0 590 3 590 10 0 6 -1 9 -2 8 -2 -2 -270 -4 -595 -5z"/>
</g>
</svg>
