<?xml version="1.0" standalone="no"?>
<!DOCTYPE svg PUBLIC "-//W3C//DTD SVG 20010904//EN"
 "http://www.w3.org/TR/2001/REC-SVG-20010904/DTD/svg10.dtd">
<svg version="1.0" xmlns="http://www.w3.org/2000/svg"
 width="1024.000000pt" height="1024.000000pt" viewBox="0 0 1024.000000 1024.000000"
 preserveAspectRatio="xMidYMid meet">

<g transform="translate(0.000000,1024.000000) scale(0.100000,-0.100000)"
fill="#000000" stroke="none">
<path d="M0 5120 l0 -5120 5120 0 5120 0 0 5120 0 5120 -5120 0 -5120 0 0
-5120z m8400 -10 l0 -3210 -465 0 -465 0 0 2795 0 2795 -590 0 -590 0 0 -2795
0 -2795 -470 0 -470 0 0 3210 0 3210 1525 0 1525 0 0 -3210z m-5682 2225 c-2
-536 -1 -975 2 -975 3 0 18 24 33 53 33 62 89 159 122 207 12 19 34 55 47 80
30 54 103 183 173 305 29 50 65 114 81 143 16 28 62 109 103 180 41 70 121
208 179 307 156 270 183 316 213 365 15 25 43 76 63 114 21 38 42 74 49 80 7
7 23 36 36 64 l24 52 479 0 c263 0 478 -2 478 -5 0 -5 -27 -40 -140 -185 -36
-45 -74 -94 -84 -109 -73 -99 -132 -177 -137 -181 -3 -3 -28 -36 -54 -75 -27
-38 -65 -90 -85 -115 -30 -36 -341 -447 -424 -559 -11 -14 -78 -104 -150 -200
-72 -95 -146 -194 -165 -220 -19 -25 -71 -95 -116 -156 -45 -60 -104 -141
-131 -180 -27 -38 -55 -77 -62 -85 -14 -16 -124 -167 -206 -283 -48 -67 -44
-76 14 -37 14 9 57 34 95 55 39 22 82 46 97 55 14 8 52 30 85 48 32 17 65 37
73 42 8 6 51 30 95 54 44 23 109 60 145 81 36 21 106 61 155 88 50 28 97 56
105 62 8 7 50 31 94 54 43 23 90 50 105 60 14 10 40 25 56 33 65 33 240 132
245 138 4 6 123 73 238 135 21 12 76 43 122 70 47 28 92 53 101 57 13 5 48 26
144 85 27 17 116 63 121 63 2 0 4 -206 4 -458 l0 -458 -50 -22 c-28 -12 -54
-22 -58 -22 -4 0 -41 -14 -82 -31 -41 -17 -83 -32 -92 -34 -10 -2 -32 -10 -50
-19 -34 -15 -194 -79 -308 -123 -36 -14 -92 -37 -125 -50 -33 -14 -94 -38
-135 -53 -100 -37 -247 -94 -340 -132 -41 -17 -97 -39 -125 -50 -27 -11 -58
-24 -67 -29 -10 -5 -24 -9 -31 -9 -7 0 -33 -10 -57 -21 -25 -12 -67 -30 -95
-40 -105 -37 -185 -68 -232 -89 -26 -12 -56 -23 -66 -25 -10 -2 -41 -15 -70
-28 l-52 -24 86 -26 c48 -15 93 -27 101 -27 8 0 59 -14 113 -31 55 -17 111
-33 125 -36 14 -2 61 -14 105 -27 44 -13 132 -38 195 -55 63 -18 165 -46 225
-62 61 -17 142 -40 180 -51 39 -12 79 -22 90 -24 11 -1 20 -3 20 -4 0 -1 7 -3
15 -5 8 -2 51 -13 95 -25 44 -12 89 -24 100 -27 28 -6 222 -60 335 -93 52 -15
120 -33 150 -40 30 -7 65 -17 78 -21 l22 -9 0 -410 c0 -225 -2 -410 -5 -410
-2 0 -24 8 -47 19 -55 24 -138 59 -263 111 -163 67 -197 82 -253 106 -29 13
-55 24 -58 24 -5 0 -77 31 -128 56 -16 8 -33 14 -38 14 -5 0 -33 11 -61 24
-29 13 -110 48 -182 76 -71 29 -134 56 -139 61 -6 5 -16 9 -24 9 -8 0 -76 27
-151 61 -75 33 -143 62 -151 64 -8 2 -41 15 -72 30 -31 14 -66 28 -77 30 -11
2 -46 17 -78 34 -32 17 -61 31 -65 31 -4 0 -31 11 -60 24 -29 13 -64 27 -78
31 -14 4 -46 18 -72 30 -27 13 -48 22 -48 21 0 -1 18 -22 40 -46 61 -69 260
-306 420 -500 79 -96 183 -220 231 -275 47 -55 121 -142 165 -193 43 -52 115
-136 159 -187 226 -264 348 -408 428 -503 48 -58 116 -138 150 -176 64 -72
108 -124 232 -270 39 -46 109 -128 158 -184 l87 -101 0 -255 0 -256 -348 0
-348 0 -26 28 c-14 15 -51 65 -82 112 -30 47 -76 113 -101 148 -25 34 -45 67
-45 72 0 4 -4 10 -8 12 -10 3 -148 201 -271 387 -13 20 -27 38 -30 41 -3 3
-46 65 -96 139 -138 206 -214 317 -290 426 -38 55 -107 154 -152 220 -45 66
-86 125 -91 131 -5 5 -22 30 -38 55 -16 24 -32 49 -37 54 -4 6 -88 132 -187
280 -99 149 -193 288 -210 310 -16 22 -39 57 -51 78 -13 20 -25 37 -28 37 -3
0 -6 -570 -6 -1267 l0 -1268 -427 -3 -428 -2 0 3205 0 3205 430 0 430 0 -2
-975z"/>
</g>
</svg>
